<?xml version="1.0" encoding="UTF-8" standalone="no"?>
<svg
   version="1.1"
   viewBox="0.00 0.00 1205.00 2607.00"
   id="svg17"
   sodipodi:docname="PatternBackgroundBW.svg"
   inkscape:version="1.3.2 (091e20e, 2023-11-25, custom)"
   xmlns:inkscape="http://www.inkscape.org/namespaces/inkscape"
   xmlns:sodipodi="http://sodipodi.sourceforge.net/DTD/sodipodi-0.dtd"
   xmlns="http://www.w3.org/2000/svg"
   xmlns:svg="http://www.w3.org/2000/svg">
  <sodipodi:namedview
     id="namedview17"
     pagecolor="#505050"
     bordercolor="#eeeeee"
     borderopacity="1"
     inkscape:showpageshadow="0"
     inkscape:pageopacity="0"
     inkscape:pagecheckerboard="0"
     inkscape:deskcolor="#505050"
     inkscape:zoom="0.3118527"
     inkscape:cx="602.84871"
     inkscape:cy="1303.5"
     inkscape:window-width="1920"
     inkscape:window-height="1009"
     inkscape:window-x="-8"
     inkscape:window-y="-8"
     inkscape:window-maximized="1"
     inkscape:current-layer="svg17" />
  <defs
     id="defs17" />
  <g
     stroke-width="2.00"
     fill="none"
     stroke-linecap="butt"
     id="g9">
    <path
       stroke="#caab65"
       vector-effect="non-scaling-stroke"
       d="   M 1205.00 316.13   Q 1204.75 317.23 1204.65 319.98   C 1204.55 322.86 1203.34 325.78 1201.66 328.53   C 1190.31 347.12 1175.55 372.86 1153.42 410.99   Q 1148.36 419.72 1143.08 428.12   Q 1142.81 428.54 1077.59 532.54   Q 1073.43 539.18 1066.53 549.19   Q 1058.73 560.53 1052.54 570.03   C 1047.95 577.08 1040.39 587.12 1035.40 595.16   C 1030.27 603.43 1025.24 610.00 1018.91 619.61   Q 1001.91 645.41 995.51 654.51   Q 981.64 674.20 955.24 709.25   Q 944.47 723.56 923.31 753.56   Q 919.52 758.93 894.15 791.87   C 886.72 801.52 876.28 815.38 867.49 825.99   Q 844.75 853.43 837.73 862.21   Q 826.48 876.29 816.47 887.73   Q 801.30 905.07 794.29 913.73   Q 787.52 922.09 781.36 928.98   Q 767.41 944.58 746.77 968.25   C 742.23 973.46 736.37 979.01 731.70 984.30   Q 726.66 990.01 720.48 996.39   C 711.81 1005.32 698.07 1020.31 686.88 1031.77   Q 650.69 1068.81 645.73 1073.73   Q 629.47 1089.83 583.91 1132.85   Q 581.11 1135.49 571.63 1144.15   C 566.43 1148.89 560.76 1154.66 554.85 1159.74   C 550.81 1163.20 546.54 1167.36 543.32 1170.15   Q 518.16 1191.89 509.27 1199.66   C 493.35 1213.56 476.25 1227.50 460.90 1240.15   C 458.07 1242.48 454.97 1245.56 451.86 1248.11   Q 451.20 1248.64 450.67 1250.36   Q 450.52 1250.84 450.06 1251.06   L 446.60 1252.65"
       id="path1"
       style="stroke:#acacac" />
    <path
       stroke="#c5a253"
       vector-effect="non-scaling-stroke"
       d="   M 446.60 1252.65   Q 443.99 1253.08 442.84 1254.56"
       id="path2"
       style="stroke:#a3a3a3" />
    <path
       stroke="#caab65"
       vector-effect="non-scaling-stroke"
       d="   M 442.84 1254.56   Q 441.50 1254.26 440.82 1255.27   Q 440.54 1255.68 440.04 1255.70   C 437.47 1255.84 434.93 1254.97 432.26 1255.47   Q 412.05 1259.21 388.84 1263.82   Q 375.35 1266.50 369.19 1267.58   Q 347.77 1271.30 305.99 1278.21   C 284.91 1281.69 259.91 1284.71 243.64 1287.06   Q 233.41 1288.54 223.79 1289.49   Q 165.53 1295.31 155.75 1295.98   Q 119.89 1298.45 50.59 1300.53   Q 50.51 1300.53 35.92 1301.06   Q 21.71 1301.58 7.50 1301.34   Q 5.34 1301.31 3.21 1301.51   Q 1.08 1301.71 0.00 1300.37"
       id="path3"
       style="stroke:#acacac" />
    <path
       stroke="#bc9235"
       vector-effect="non-scaling-stroke"
       d="   M 1205.00 871.00   Q 1203.32 871.35 1202.03 872.45   Q 1173.44 896.65 1146.59 919.51   Q 1138.93 926.03 1130.95 931.97   Q 1109.99 947.57 1093.85 959.38   Q 1056.78 986.48 1051.65 989.91   Q 1009.02 1018.46 992.00 1030.19   C 984.50 1035.36 977.16 1039.15 969.73 1043.80   Q 962.47 1048.35 952.82 1053.65   Q 944.20 1058.39 931.33 1066.31   Q 918.40 1074.26 898.51 1084.70   Q 893.48 1087.34 841.21 1114.74   Q 832.18 1119.47 823.26 1123.53   Q 786.87 1140.09 774.02 1145.68   Q 772.58 1146.30 771.19 1146.96   Q 754.59 1154.90 739.51 1160.61   Q 738.08 1161.16 736.01 1161.98   Q 708.26 1172.96 681.55 1183.59   Q 677.52 1185.20 676.62 1185.42   C 672.21 1186.49 668.91 1188.60 664.21 1189.89   C 660.26 1190.97 656.64 1192.89 652.91 1193.93   C 648.00 1195.30 643.93 1197.46 639.16 1198.58   C 634.49 1199.68 630.79 1201.92 626.38 1203.01   Q 622.90 1203.87 620.14 1205.34   C 617.91 1206.53 615.55 1206.99 612.91 1207.81   C 609.74 1208.80 605.63 1210.85 601.97 1211.65   Q 598.64 1212.38 596.34 1213.35   C 591.23 1215.52 584.74 1216.38 579.02 1218.51   Q 576.79 1219.34 572.21 1220.48   Q 566.40 1221.93 563.12 1223.15   C 557.95 1225.08 553.13 1225.15 548.19 1227.32   C 544.05 1229.15 538.29 1229.39 533.77 1231.36   Q 528.89 1233.50 523.59 1233.93   Q 521.42 1234.10 518.81 1235.26   C 513.92 1237.42 511.06 1237.76 506.37 1238.38   Q 503.84 1238.72 501.50 1239.81   Q 496.73 1242.03 491.19 1242.66   Q 487.80 1243.04 485.29 1244.15   Q 480.57 1246.23 473.10 1247.27   Q 470.97 1247.57 467.82 1248.85   Q 463.49 1250.60 459.34 1251.02   C 457.16 1251.25 454.47 1250.51 451.97 1250.79   A 1.23 1.21 15.5 0 0 451.16 1251.24   Q 449.40 1253.38 446.60 1252.65"
       id="path4"
       style="stroke:#949494" />
    <path
       stroke="#bc9235"
       vector-effect="non-scaling-stroke"
       d="   M 1205.00 1470.88   C 1204.61 1474.87 1205.48 1481.19 1203.00 1484.25   Q 1192.74 1496.95 1190.61 1500.64   Q 1180.36 1518.36 1167.69 1534.26   Q 1163.02 1540.12 1161.00 1543.79   C 1154.31 1555.98 1146.11 1566.46 1135.40 1580.62   Q 1131.85 1585.32 1129.92 1588.64   C 1125.67 1595.97 1121.44 1602.80 1116.29 1609.54   Q 1062.28 1680.30 1007.85 1750.36   Q 997.21 1764.06 993.55 1767.80   C 983.66 1777.92 976.46 1787.18 968.46 1797.45   Q 967.34 1798.89 961.42 1804.25   C 949.32 1815.19 939.71 1826.05 931.54 1836.57   C 925.15 1844.78 918.42 1850.16 912.26 1857.51   C 907.85 1862.76 903.52 1868.51 898.78 1873.05   Q 890.78 1880.72 887.32 1885.33   Q 881.85 1892.62 877.07 1898.34   C 874.35 1901.61 870.86 1901.45 867.11 1901.37   Q 803.37 1899.95 740.25 1900.21   Q 730.80 1900.25 718.48 1900.24   Q 710.83 1900.23 702.29 1899.07   Q 685.00 1896.74 674.50 1896.21   Q 664.74 1895.71 636.58 1895.75   Q 628.66 1895.77 621.83 1894.59   Q 610.05 1892.56 604.75 1892.13   Q 590.71 1890.99 573.50 1891.35   C 569.93 1891.42 564.91 1891.28 560.54 1890.40   Q 546.41 1887.54 531.98 1887.22   Q 523.42 1887.04 515.51 1886.75   Q 514.21 1886.71 507.14 1885.02   Q 502.36 1883.88 498.75 1883.45   C 489.62 1882.36 478.28 1883.57 467.12 1880.95   Q 453.36 1877.71 437.08 1878.11   C 433.87 1878.19 431.02 1877.84 427.83 1876.96   Q 417.38 1874.09 413.74 1874.10   C 406.82 1874.10 399.80 1873.96 392.71 1872.07   Q 385.57 1870.17 383.89 1870.09   Q 371.69 1869.46 368.34 1869.24   Q 364.98 1869.02 360.83 1867.82   Q 352.63 1865.45 345.51 1865.26   C 338.17 1865.05 334.28 1865.17 328.07 1863.18   Q 324.47 1862.03 319.61 1861.46   Q 310.27 1860.37 308.41 1860.29   Q 305.12 1860.14 300.72 1858.76   C 291.80 1855.96 282.85 1857.00 274.26 1854.54   C 267.73 1852.68 261.47 1852.08 254.33 1851.67   Q 251.93 1851.54 247.03 1850.19   Q 239.64 1848.16 237.97 1848.06   Q 228.09 1847.50 219.55 1845.01   C 212.37 1842.91 204.84 1843.43 197.59 1841.05   C 192.93 1839.52 187.64 1839.03 183.79 1838.68   Q 177.87 1838.14 172.20 1836.05   Q 170.48 1835.42 159.20 1834.17   C 155.73 1833.79 153.46 1833.15 150.06 1832.06   C 143.90 1830.10 137.38 1830.30 131.31 1828.16   Q 125.89 1826.26 119.36 1825.55   Q 115.35 1825.11 112.03 1823.95   Q 106.44 1821.98 99.43 1821.18   Q 95.32 1820.70 91.85 1819.48   Q 86.12 1817.47 79.19 1816.72   Q 75.65 1816.34 71.62 1814.99   Q 66.01 1813.11 60.09 1812.39   Q 55.46 1811.82 52.24 1810.59   C 46.46 1808.38 39.09 1808.02 32.44 1805.82   Q 27.23 1804.09 20.91 1803.31   Q 18.05 1802.96 15.03 1801.85   Q 7.86 1799.19 0.00 1798.70"
       id="path5"
       style="stroke:#949494" />
    <path
       stroke="#bc9235"
       vector-effect="non-scaling-stroke"
       d="   M 0.00 1525.18   Q 5.41 1520.42 8.14 1519.59   Q 11.54 1518.55 14.72 1517.01   Q 19.73 1514.58 21.10 1514.01   Q 27.62 1511.27 38.21 1506.50   Q 59.32 1496.97 63.93 1494.65   Q 66.13 1493.53 68.26 1492.68   C 72.26 1491.07 74.85 1489.17 78.99 1487.58   C 81.89 1486.47 84.82 1484.59 87.66 1483.52   Q 90.52 1482.45 103.80 1475.57   Q 116.12 1469.18 116.20 1469.13   Q 120.29 1466.91 125.52 1464.23   Q 133.23 1460.27 134.84 1459.31   Q 137.30 1457.86 139.37 1456.99   C 141.95 1455.91 144.08 1454.26 146.75 1453.09   C 149.78 1451.77 153.07 1449.24 155.17 1448.32   C 157.71 1447.22 159.43 1445.68 162.01 1444.33   C 168.16 1441.09 174.13 1437.58 180.14 1434.09   Q 180.70 1433.76 182.52 1432.54   C 184.31 1431.32 186.58 1430.45 188.17 1429.44   Q 189.22 1428.79 191.32 1427.65   Q 198.33 1423.85 205.05 1419.68   C 207.03 1418.46 210.17 1416.99 212.21 1415.38   C 214.14 1413.85 216.25 1413.20 218.17 1411.80   Q 220.16 1410.34 222.54 1408.99   Q 242.97 1397.40 254.58 1390.02   Q 259.76 1386.72 264.92 1383.43   Q 274.45 1377.36 283.41 1371.42   C 285.06 1370.32 287.15 1369.26 288.92 1368.04   C 292.87 1365.32 298.28 1361.98 300.82 1360.29   Q 308.32 1355.30 315.79 1350.25   Q 321.67 1346.26 354.75 1323.02   Q 363.39 1316.94 371.84 1310.61   Q 374.82 1308.38 387.99 1298.81   Q 394.88 1293.79 404.75 1286.26   Q 416.68 1277.16 422.74 1272.35   Q 422.85 1272.27 430.88 1266.32   Q 437.70 1261.28 442.84 1254.56"
       id="path6"
       style="stroke:#949494" />
    <path
       stroke="#bc9235"
       vector-effect="non-scaling-stroke"
       d="   M 1205.00 1886.75   Q 1196.10 1886.76 1191.85 1887.60   C 1185.53 1888.86 1177.97 1890.91 1171.04 1891.02   Q 1151.46 1891.33 1140.34 1891.62   Q 1129.34 1891.90 1125.83 1892.80   C 1115.48 1895.46 1108.94 1895.74 1097.60 1895.65   C 1085.11 1895.56 1073.43 1895.88 1060.55 1896.07   C 1052.49 1896.19 1039.99 1899.92 1029.20 1899.89   Q 980.25 1899.77 931.30 1899.92   C 925.58 1899.94 918.81 1899.68 913.58 1900.71   C 910.56 1901.29 906.75 1903.46 903.10 1904.19   Q 900.24 1904.76 898.34 1904.78   Q 879.85 1904.94 874.68 1905.07   A 2.59 2.56 20.7 0 0 872.88 1905.87   C 866.44 1912.69 861.25 1919.38 854.77 1925.80   Q 851.21 1929.33 845.51 1935.71   C 838.33 1943.74 831.47 1950.33 823.88 1958.82   C 820.20 1962.94 815.98 1966.66 811.81 1970.98   C 802.21 1980.91 792.55 1990.60 782.73 2000.58   Q 775.25 2008.18 768.50 2014.64   Q 762.23 2020.65 719.17 2061.91   Q 712.90 2067.92 678.89 2100.26   Q 671.65 2107.15 664.22 2113.84   Q 649.47 2127.10 622.47 2151.34   Q 614.16 2158.79 607.32 2164.39   Q 556.89 2205.64 506.80 2247.22   Q 499.63 2253.16 491.16 2259.69   Q 464.81 2279.96 442.64 2296.87   Q 435.00 2302.70 426.60 2308.82   Q 403.25 2325.80 378.82 2343.55   Q 365.55 2353.20 325.63 2381.43   Q 317.20 2387.40 309.13 2392.74   Q 290.88 2404.83 267.84 2419.64   Q 265.54 2421.11 257.68 2426.16   Q 206.38 2459.13 202.10 2461.88   Q 177.30 2477.81 152.05 2493.02   Q 124.84 2509.42 122.77 2510.80   Q 117.82 2514.10 108.52 2519.26   C 78.15 2536.13 40.94 2557.07 6.81 2575.33   C 3.20 2577.27 0.85 2578.00 0.00 2582.61"
       id="path7"
       style="stroke:#949494" />
    <path
       stroke="#bc9235"
       vector-effect="non-scaling-stroke"
       d="   M 1205.00 1910.23   L 1205.00 1925.96"
       id="path8"
       style="stroke:#949494" />
    <path
       stroke="#bc9235"
       vector-effect="non-scaling-stroke"
       d="   M 1205.00 1972.03   L 1205.00 1991.89"
       id="path9"
       style="stroke:#949494" />
  </g>
  <path
     fill="#d2ba83"
     d="   M 1205.00 0.00   L 1205.00 316.13   Q 1204.75 317.23 1204.65 319.98   C 1204.55 322.86 1203.34 325.78 1201.66 328.53   C 1190.31 347.12 1175.55 372.86 1153.42 410.99   Q 1148.36 419.72 1143.08 428.12   Q 1142.81 428.54 1077.59 532.54   Q 1073.43 539.18 1066.53 549.19   Q 1058.73 560.53 1052.54 570.03   C 1047.95 577.08 1040.39 587.12 1035.40 595.16   C 1030.27 603.43 1025.24 610.00 1018.91 619.61   Q 1001.91 645.41 995.51 654.51   Q 981.64 674.20 955.24 709.25   Q 944.47 723.56 923.31 753.56   Q 919.52 758.93 894.15 791.87   C 886.72 801.52 876.28 815.38 867.49 825.99   Q 844.75 853.43 837.73 862.21   Q 826.48 876.29 816.47 887.73   Q 801.30 905.07 794.29 913.73   Q 787.52 922.09 781.36 928.98   Q 767.41 944.58 746.77 968.25   C 742.23 973.46 736.37 979.01 731.70 984.30   Q 726.66 990.01 720.48 996.39   C 711.81 1005.32 698.07 1020.31 686.88 1031.77   Q 650.69 1068.81 645.73 1073.73   Q 629.47 1089.83 583.91 1132.85   Q 581.11 1135.49 571.63 1144.15   C 566.43 1148.89 560.76 1154.66 554.85 1159.74   C 550.81 1163.20 546.54 1167.36 543.32 1170.15   Q 518.16 1191.89 509.27 1199.66   C 493.35 1213.56 476.25 1227.50 460.90 1240.15   C 458.07 1242.48 454.97 1245.56 451.86 1248.11   Q 451.20 1248.64 450.67 1250.36   Q 450.52 1250.84 450.06 1251.06   L 446.60 1252.65   Q 443.99 1253.08 442.84 1254.56   Q 441.50 1254.26 440.82 1255.27   Q 440.54 1255.68 440.04 1255.70   C 437.47 1255.84 434.93 1254.97 432.26 1255.47   Q 412.05 1259.21 388.84 1263.82   Q 375.35 1266.50 369.19 1267.58   Q 347.77 1271.30 305.99 1278.21   C 284.91 1281.69 259.91 1284.71 243.64 1287.06   Q 233.41 1288.54 223.79 1289.49   Q 165.53 1295.31 155.75 1295.98   Q 119.89 1298.45 50.59 1300.53   Q 50.51 1300.53 35.92 1301.06   Q 21.71 1301.58 7.50 1301.34   Q 5.34 1301.31 3.21 1301.51   Q 1.08 1301.71 0.00 1300.37   L 0.00 0.00   L 1205.00 0.00   Z"
     id="path10"
     style="fill:#bbbbbb" />
  <path
     fill="#c19b47"
     d="   M 1205.00 316.13   L 1205.00 871.00   Q 1203.32 871.35 1202.03 872.45   Q 1173.44 896.65 1146.59 919.51   Q 1138.93 926.03 1130.95 931.97   Q 1109.99 947.57 1093.85 959.38   Q 1056.78 986.48 1051.65 989.91   Q 1009.02 1018.46 992.00 1030.19   C 984.50 1035.36 977.16 1039.15 969.73 1043.80   Q 962.47 1048.35 952.82 1053.65   Q 944.20 1058.39 931.33 1066.31   Q 918.40 1074.26 898.51 1084.70   Q 893.48 1087.34 841.21 1114.74   Q 832.18 1119.47 823.26 1123.53   Q 786.87 1140.09 774.02 1145.68   Q 772.58 1146.30 771.19 1146.96   Q 754.59 1154.90 739.51 1160.61   Q 738.08 1161.16 736.01 1161.98   Q 708.26 1172.96 681.55 1183.59   Q 677.52 1185.20 676.62 1185.42   C 672.21 1186.49 668.91 1188.60 664.21 1189.89   C 660.26 1190.97 656.64 1192.89 652.91 1193.93   C 648.00 1195.30 643.93 1197.46 639.16 1198.58   C 634.49 1199.68 630.79 1201.92 626.38 1203.01   Q 622.90 1203.87 620.14 1205.34   C 617.91 1206.53 615.55 1206.99 612.91 1207.81   C 609.74 1208.80 605.63 1210.85 601.97 1211.65   Q 598.64 1212.38 596.34 1213.35   C 591.23 1215.52 584.74 1216.38 579.02 1218.51   Q 576.79 1219.34 572.21 1220.48   Q 566.40 1221.93 563.12 1223.15   C 557.95 1225.08 553.13 1225.15 548.19 1227.32   C 544.05 1229.15 538.29 1229.39 533.77 1231.36   Q 528.89 1233.50 523.59 1233.93   Q 521.42 1234.10 518.81 1235.26   C 513.92 1237.42 511.06 1237.76 506.37 1238.38   Q 503.84 1238.72 501.50 1239.81   Q 496.73 1242.03 491.19 1242.66   Q 487.80 1243.04 485.29 1244.15   Q 480.57 1246.23 473.10 1247.27   Q 470.97 1247.57 467.82 1248.85   Q 463.49 1250.60 459.34 1251.02   C 457.16 1251.25 454.47 1250.51 451.97 1250.79   A 1.23 1.21 15.5 0 0 451.16 1251.24   Q 449.40 1253.38 446.60 1252.65   L 450.06 1251.06   Q 450.52 1250.84 450.67 1250.36   Q 451.20 1248.64 451.86 1248.11   C 454.97 1245.56 458.07 1242.48 460.90 1240.15   C 476.25 1227.50 493.35 1213.56 509.27 1199.66   Q 518.16 1191.89 543.32 1170.15   C 546.54 1167.36 550.81 1163.20 554.85 1159.74   C 560.76 1154.66 566.43 1148.89 571.63 1144.15   Q 581.11 1135.49 583.91 1132.85   Q 629.47 1089.83 645.73 1073.73   Q 650.69 1068.81 686.88 1031.77   C 698.07 1020.31 711.81 1005.32 720.48 996.39   Q 726.66 990.01 731.70 984.30   C 736.37 979.01 742.23 973.46 746.77 968.25   Q 767.41 944.58 781.36 928.98   Q 787.52 922.09 794.29 913.73   Q 801.30 905.07 816.47 887.73   Q 826.48 876.29 837.73 862.21   Q 844.75 853.43 867.49 825.99   C 876.28 815.38 886.72 801.52 894.15 791.87   Q 919.52 758.93 923.31 753.56   Q 944.47 723.56 955.24 709.25   Q 981.64 674.20 995.51 654.51   Q 1001.91 645.41 1018.91 619.61   C 1025.24 610.00 1030.27 603.43 1035.40 595.16   C 1040.39 587.12 1047.95 577.08 1052.54 570.03   Q 1058.73 560.53 1066.53 549.19   Q 1073.43 539.18 1077.59 532.54   Q 1142.81 428.54 1143.08 428.12   Q 1148.36 419.72 1153.42 410.99   C 1175.55 372.86 1190.31 347.12 1201.66 328.53   C 1203.34 325.78 1204.55 322.86 1204.65 319.98   Q 1204.75 317.23 1205.00 316.13   Z"
     id="path11"
     style="fill:#9d9d9d" />
  <path
     fill="#b78923"
     d="   M 1205.00 871.00   L 1205.00 1470.88   C 1204.61 1474.87 1205.48 1481.19 1203.00 1484.25   Q 1192.74 1496.95 1190.61 1500.64   Q 1180.36 1518.36 1167.69 1534.26   Q 1163.02 1540.12 1161.00 1543.79   C 1154.31 1555.98 1146.11 1566.46 1135.40 1580.62   Q 1131.85 1585.32 1129.92 1588.64   C 1125.67 1595.97 1121.44 1602.80 1116.29 1609.54   Q 1062.28 1680.30 1007.85 1750.36   Q 997.21 1764.06 993.55 1767.80   C 983.66 1777.92 976.46 1787.18 968.46 1797.45   Q 967.34 1798.89 961.42 1804.25   C 949.32 1815.19 939.71 1826.05 931.54 1836.57   C 925.15 1844.78 918.42 1850.16 912.26 1857.51   C 907.85 1862.76 903.52 1868.51 898.78 1873.05   Q 890.78 1880.72 887.32 1885.33   Q 881.85 1892.62 877.07 1898.34   C 874.35 1901.61 870.86 1901.45 867.11 1901.37   Q 803.37 1899.95 740.25 1900.21   Q 730.80 1900.25 718.48 1900.24   Q 710.83 1900.23 702.29 1899.07   Q 685.00 1896.74 674.50 1896.21   Q 664.74 1895.71 636.58 1895.75   Q 628.66 1895.77 621.83 1894.59   Q 610.05 1892.56 604.75 1892.13   Q 590.71 1890.99 573.50 1891.35   C 569.93 1891.42 564.91 1891.28 560.54 1890.40   Q 546.41 1887.54 531.98 1887.22   Q 523.42 1887.04 515.51 1886.75   Q 514.21 1886.71 507.14 1885.02   Q 502.36 1883.88 498.75 1883.45   C 489.62 1882.36 478.28 1883.57 467.12 1880.95   Q 453.36 1877.71 437.08 1878.11   C 433.87 1878.19 431.02 1877.84 427.83 1876.96   Q 417.38 1874.09 413.74 1874.10   C 406.82 1874.10 399.80 1873.96 392.71 1872.07   Q 385.57 1870.17 383.89 1870.09   Q 371.69 1869.46 368.34 1869.24   Q 364.98 1869.02 360.83 1867.82   Q 352.63 1865.45 345.51 1865.26   C 338.17 1865.05 334.28 1865.17 328.07 1863.18   Q 324.47 1862.03 319.61 1861.46   Q 310.27 1860.37 308.41 1860.29   Q 305.12 1860.14 300.72 1858.76   C 291.80 1855.96 282.85 1857.00 274.26 1854.54   C 267.73 1852.68 261.47 1852.08 254.33 1851.67   Q 251.93 1851.54 247.03 1850.19   Q 239.64 1848.16 237.97 1848.06   Q 228.09 1847.50 219.55 1845.01   C 212.37 1842.91 204.84 1843.43 197.59 1841.05   C 192.93 1839.52 187.64 1839.03 183.79 1838.68   Q 177.87 1838.14 172.20 1836.05   Q 170.48 1835.42 159.20 1834.17   C 155.73 1833.79 153.46 1833.15 150.06 1832.06   C 143.90 1830.10 137.38 1830.30 131.31 1828.16   Q 125.89 1826.26 119.36 1825.55   Q 115.35 1825.11 112.03 1823.95   Q 106.44 1821.98 99.43 1821.18   Q 95.32 1820.70 91.85 1819.48   Q 86.12 1817.47 79.19 1816.72   Q 75.65 1816.34 71.62 1814.99   Q 66.01 1813.11 60.09 1812.39   Q 55.46 1811.82 52.24 1810.59   C 46.46 1808.38 39.09 1808.02 32.44 1805.82   Q 27.23 1804.09 20.91 1803.31   Q 18.05 1802.96 15.03 1801.85   Q 7.86 1799.19 0.00 1798.70   L 0.00 1525.18   Q 5.41 1520.42 8.14 1519.59   Q 11.54 1518.55 14.72 1517.01   Q 19.73 1514.58 21.10 1514.01   Q 27.62 1511.27 38.21 1506.50   Q 59.32 1496.97 63.93 1494.65   Q 66.13 1493.53 68.26 1492.68   C 72.26 1491.07 74.85 1489.17 78.99 1487.58   C 81.89 1486.47 84.82 1484.59 87.66 1483.52   Q 90.52 1482.45 103.80 1475.57   Q 116.12 1469.18 116.20 1469.13   Q 120.29 1466.91 125.52 1464.23   Q 133.23 1460.27 134.84 1459.31   Q 137.30 1457.86 139.37 1456.99   C 141.95 1455.91 144.08 1454.26 146.75 1453.09   C 149.78 1451.77 153.07 1449.24 155.17 1448.32   C 157.71 1447.22 159.43 1445.68 162.01 1444.33   C 168.16 1441.09 174.13 1437.58 180.14 1434.09   Q 180.70 1433.76 182.52 1432.54   C 184.31 1431.32 186.58 1430.45 188.17 1429.44   Q 189.22 1428.79 191.32 1427.65   Q 198.33 1423.85 205.05 1419.68   C 207.03 1418.46 210.17 1416.99 212.21 1415.38   C 214.14 1413.85 216.25 1413.20 218.17 1411.80   Q 220.16 1410.34 222.54 1408.99   Q 242.97 1397.40 254.58 1390.02   Q 259.76 1386.72 264.92 1383.43   Q 274.45 1377.36 283.41 1371.42   C 285.06 1370.32 287.15 1369.26 288.92 1368.04   C 292.87 1365.32 298.28 1361.98 300.82 1360.29   Q 308.32 1355.30 315.79 1350.25   Q 321.67 1346.26 354.75 1323.02   Q 363.39 1316.94 371.84 1310.61   Q 374.82 1308.38 387.99 1298.81   Q 394.88 1293.79 404.75 1286.26   Q 416.68 1277.16 422.74 1272.35   Q 422.85 1272.27 430.88 1266.32   Q 437.70 1261.28 442.84 1254.56   Q 443.99 1253.08 446.60 1252.65   Q 449.40 1253.38 451.16 1251.24   A 1.23 1.21 15.5 0 1 451.97 1250.79   C 454.47 1250.51 457.16 1251.25 459.34 1251.02   Q 463.49 1250.60 467.82 1248.85   Q 470.97 1247.57 473.10 1247.27   Q 480.57 1246.23 485.29 1244.15   Q 487.80 1243.04 491.19 1242.66   Q 496.73 1242.03 501.50 1239.81   Q 503.84 1238.72 506.37 1238.38   C 511.06 1237.76 513.92 1237.42 518.81 1235.26   Q 521.42 1234.10 523.59 1233.93   Q 528.89 1233.50 533.77 1231.36   C 538.29 1229.39 544.05 1229.15 548.19 1227.32   C 553.13 1225.15 557.95 1225.08 563.12 1223.15   Q 566.40 1221.93 572.21 1220.48   Q 576.79 1219.34 579.02 1218.51   C 584.74 1216.38 591.23 1215.52 596.34 1213.35   Q 598.64 1212.38 601.97 1211.65   C 605.63 1210.85 609.74 1208.80 612.91 1207.81   C 615.55 1206.99 617.91 1206.53 620.14 1205.34   Q 622.90 1203.87 626.38 1203.01   C 630.79 1201.92 634.49 1199.68 639.16 1198.58   C 643.93 1197.46 648.00 1195.30 652.91 1193.93   C 656.64 1192.89 660.26 1190.97 664.21 1189.89   C 668.91 1188.60 672.21 1186.49 676.62 1185.42   Q 677.52 1185.20 681.55 1183.59   Q 708.26 1172.96 736.01 1161.98   Q 738.08 1161.16 739.51 1160.61   Q 754.59 1154.90 771.19 1146.96   Q 772.58 1146.30 774.02 1145.68   Q 786.87 1140.09 823.26 1123.53   Q 832.18 1119.47 841.21 1114.74   Q 893.48 1087.34 898.51 1084.70   Q 918.40 1074.26 931.33 1066.31   Q 944.20 1058.39 952.82 1053.65   Q 962.47 1048.35 969.73 1043.80   C 977.16 1039.15 984.50 1035.36 992.00 1030.19   Q 1009.02 1018.46 1051.65 989.91   Q 1056.78 986.48 1093.85 959.38   Q 1109.99 947.57 1130.95 931.97   Q 1138.93 926.03 1146.59 919.51   Q 1173.44 896.65 1202.03 872.45   Q 1203.32 871.35 1205.00 871.00   Z"
     id="path12"
     style="fill:#8b8b8b" />
  <path
     fill="#c19b47"
     d="   M 442.84 1254.56   Q 437.70 1261.28 430.88 1266.32   Q 422.85 1272.27 422.74 1272.35   Q 416.68 1277.16 404.75 1286.26   Q 394.88 1293.79 387.99 1298.81   Q 374.82 1308.38 371.84 1310.61   Q 363.39 1316.94 354.75 1323.02   Q 321.67 1346.26 315.79 1350.25   Q 308.32 1355.30 300.82 1360.29   C 298.28 1361.98 292.87 1365.32 288.92 1368.04   C 287.15 1369.26 285.06 1370.32 283.41 1371.42   Q 274.45 1377.36 264.92 1383.43   Q 259.76 1386.72 254.58 1390.02   Q 242.97 1397.40 222.54 1408.99   Q 220.16 1410.34 218.17 1411.80   C 216.25 1413.20 214.14 1413.85 212.21 1415.38   C 210.17 1416.99 207.03 1418.46 205.05 1419.68   Q 198.33 1423.85 191.32 1427.65   Q 189.22 1428.79 188.17 1429.44   C 186.58 1430.45 184.31 1431.32 182.52 1432.54   Q 180.70 1433.76 180.14 1434.09   C 174.13 1437.58 168.16 1441.09 162.01 1444.33   C 159.43 1445.68 157.71 1447.22 155.17 1448.32   C 153.07 1449.24 149.78 1451.77 146.75 1453.09   C 144.08 1454.26 141.95 1455.91 139.37 1456.99   Q 137.30 1457.86 134.84 1459.31   Q 133.23 1460.27 125.52 1464.23   Q 120.29 1466.91 116.20 1469.13   Q 116.12 1469.18 103.80 1475.57   Q 90.52 1482.45 87.66 1483.52   C 84.82 1484.59 81.89 1486.47 78.99 1487.58   C 74.85 1489.17 72.26 1491.07 68.26 1492.68   Q 66.13 1493.53 63.93 1494.65   Q 59.32 1496.97 38.21 1506.50   Q 27.62 1511.27 21.10 1514.01   Q 19.73 1514.58 14.72 1517.01   Q 11.54 1518.55 8.14 1519.59   Q 5.41 1520.42 0.00 1525.18   L 0.00 1300.37   Q 1.08 1301.71 3.21 1301.51   Q 5.34 1301.31 7.50 1301.34   Q 21.71 1301.58 35.92 1301.06   Q 50.51 1300.53 50.59 1300.53   Q 119.89 1298.45 155.75 1295.98   Q 165.53 1295.31 223.79 1289.49   Q 233.41 1288.54 243.64 1287.06   C 259.91 1284.71 284.91 1281.69 305.99 1278.21   Q 347.77 1271.30 369.19 1267.58   Q 375.35 1266.50 388.84 1263.82   Q 412.05 1259.21 432.26 1255.47   C 434.93 1254.97 437.47 1255.84 440.04 1255.70   Q 440.54 1255.68 440.82 1255.27   Q 441.50 1254.26 442.84 1254.56   Z"
     id="path13"
     style="fill:#9d9d9d" />
  <path
     fill="#c19b47"
     d="   M 1205.00 1470.88   L 1205.00 1886.75   Q 1196.10 1886.76 1191.85 1887.60   C 1185.53 1888.86 1177.97 1890.91 1171.04 1891.02   Q 1151.46 1891.33 1140.34 1891.62   Q 1129.34 1891.90 1125.83 1892.80   C 1115.48 1895.46 1108.94 1895.74 1097.60 1895.65   C 1085.11 1895.56 1073.43 1895.88 1060.55 1896.07   C 1052.49 1896.19 1039.99 1899.92 1029.20 1899.89   Q 980.25 1899.77 931.30 1899.92   C 925.58 1899.94 918.81 1899.68 913.58 1900.71   C 910.56 1901.29 906.75 1903.46 903.10 1904.19   Q 900.24 1904.76 898.34 1904.78   Q 879.85 1904.94 874.68 1905.07   A 2.59 2.56 20.7 0 0 872.88 1905.87   C 866.44 1912.69 861.25 1919.38 854.77 1925.80   Q 851.21 1929.33 845.51 1935.71   C 838.33 1943.74 831.47 1950.33 823.88 1958.82   C 820.20 1962.94 815.98 1966.66 811.81 1970.98   C 802.21 1980.91 792.55 1990.60 782.73 2000.58   Q 775.25 2008.18 768.50 2014.64   Q 762.23 2020.65 719.17 2061.91   Q 712.90 2067.92 678.89 2100.26   Q 671.65 2107.15 664.22 2113.84   Q 649.47 2127.10 622.47 2151.34   Q 614.16 2158.79 607.32 2164.39   Q 556.89 2205.64 506.80 2247.22   Q 499.63 2253.16 491.16 2259.69   Q 464.81 2279.96 442.64 2296.87   Q 435.00 2302.70 426.60 2308.82   Q 403.25 2325.80 378.82 2343.55   Q 365.55 2353.20 325.63 2381.43   Q 317.20 2387.40 309.13 2392.74   Q 290.88 2404.83 267.84 2419.64   Q 265.54 2421.11 257.68 2426.16   Q 206.38 2459.13 202.10 2461.88   Q 177.30 2477.81 152.05 2493.02   Q 124.84 2509.42 122.77 2510.80   Q 117.82 2514.10 108.52 2519.26   C 78.15 2536.13 40.94 2557.07 6.81 2575.33   C 3.20 2577.27 0.85 2578.00 0.00 2582.61   L 0.00 1798.70   Q 7.86 1799.19 15.03 1801.85   Q 18.05 1802.96 20.91 1803.31   Q 27.23 1804.09 32.44 1805.82   C 39.09 1808.02 46.46 1808.38 52.24 1810.59   Q 55.46 1811.82 60.09 1812.39   Q 66.01 1813.11 71.62 1814.99   Q 75.65 1816.34 79.19 1816.72   Q 86.12 1817.47 91.85 1819.48   Q 95.32 1820.70 99.43 1821.18   Q 106.44 1821.98 112.03 1823.95   Q 115.35 1825.11 119.36 1825.55   Q 125.89 1826.26 131.31 1828.16   C 137.38 1830.30 143.90 1830.10 150.06 1832.06   C 153.46 1833.15 155.73 1833.79 159.20 1834.17   Q 170.48 1835.42 172.20 1836.05   Q 177.87 1838.14 183.79 1838.68   C 187.64 1839.03 192.93 1839.52 197.59 1841.05   C 204.84 1843.43 212.37 1842.91 219.55 1845.01   Q 228.09 1847.50 237.97 1848.06   Q 239.64 1848.16 247.03 1850.19   Q 251.93 1851.54 254.33 1851.67   C 261.47 1852.08 267.73 1852.68 274.26 1854.54   C 282.85 1857.00 291.80 1855.96 300.72 1858.76   Q 305.12 1860.14 308.41 1860.29   Q 310.27 1860.37 319.61 1861.46   Q 324.47 1862.03 328.07 1863.18   C 334.28 1865.17 338.17 1865.05 345.51 1865.26   Q 352.63 1865.45 360.83 1867.82   Q 364.98 1869.02 368.34 1869.24   Q 371.69 1869.46 383.89 1870.09   Q 385.57 1870.17 392.71 1872.07   C 399.80 1873.96 406.82 1874.10 413.74 1874.10   Q 417.38 1874.09 427.83 1876.96   C 431.02 1877.84 433.87 1878.19 437.08 1878.11   Q 453.36 1877.71 467.12 1880.95   C 478.28 1883.57 489.62 1882.36 498.75 1883.45   Q 502.36 1883.88 507.14 1885.02   Q 514.21 1886.71 515.51 1886.75   Q 523.42 1887.04 531.98 1887.22   Q 546.41 1887.54 560.54 1890.40   C 564.91 1891.28 569.93 1891.42 573.50 1891.35   Q 590.71 1890.99 604.75 1892.13   Q 610.05 1892.56 621.83 1894.59   Q 628.66 1895.77 636.58 1895.75   Q 664.74 1895.71 674.50 1896.21   Q 685.00 1896.74 702.29 1899.07   Q 710.83 1900.23 718.48 1900.24   Q 730.80 1900.25 740.25 1900.21   Q 803.37 1899.95 867.11 1901.37   C 870.86 1901.45 874.35 1901.61 877.07 1898.34   Q 881.85 1892.62 887.32 1885.33   Q 890.78 1880.72 898.78 1873.05   C 903.52 1868.51 907.85 1862.76 912.26 1857.51   C 918.42 1850.16 925.15 1844.78 931.54 1836.57   C 939.71 1826.05 949.32 1815.19 961.42 1804.25   Q 967.34 1798.89 968.46 1797.45   C 976.46 1787.18 983.66 1777.92 993.55 1767.80   Q 997.21 1764.06 1007.85 1750.36   Q 1062.28 1680.30 1116.29 1609.54   C 1121.44 1602.80 1125.67 1595.97 1129.92 1588.64   Q 1131.85 1585.32 1135.40 1580.62   C 1146.11 1566.46 1154.31 1555.98 1161.00 1543.79   Q 1163.02 1540.12 1167.69 1534.26   Q 1180.36 1518.36 1190.61 1500.64   Q 1192.74 1496.95 1203.00 1484.25   C 1205.48 1481.19 1204.61 1474.87 1205.00 1470.88   Z"
     id="path14"
     style="fill:#9d9d9d" />
  <path
     fill="#b78923"
     d="   M 1205.00 1886.75   L 1205.00 1910.23   L 1205.00 1925.96   L 1205.00 1972.03   L 1205.00 1991.89   L 1205.00 2607.00   L 0.00 2607.00   L 0.00 2582.61   C 0.85 2578.00 3.20 2577.27 6.81 2575.33   C 40.94 2557.07 78.15 2536.13 108.52 2519.26   Q 117.82 2514.10 122.77 2510.80   Q 124.84 2509.42 152.05 2493.02   Q 177.30 2477.81 202.10 2461.88   Q 206.38 2459.13 257.68 2426.16   Q 265.54 2421.11 267.84 2419.64   Q 290.88 2404.83 309.13 2392.74   Q 317.20 2387.40 325.63 2381.43   Q 365.55 2353.20 378.82 2343.55   Q 403.25 2325.80 426.60 2308.82   Q 435.00 2302.70 442.64 2296.87   Q 464.81 2279.96 491.16 2259.69   Q 499.63 2253.16 506.80 2247.22   Q 556.89 2205.64 607.32 2164.39   Q 614.16 2158.79 622.47 2151.34   Q 649.47 2127.10 664.22 2113.84   Q 671.65 2107.15 678.89 2100.26   Q 712.90 2067.92 719.17 2061.91   Q 762.23 2020.65 768.50 2014.64   Q 775.25 2008.18 782.73 2000.58   C 792.55 1990.60 802.21 1980.91 811.81 1970.98   C 815.98 1966.66 820.20 1962.94 823.88 1958.82   C 831.47 1950.33 838.33 1943.74 845.51 1935.71   Q 851.21 1929.33 854.77 1925.80   C 861.25 1919.38 866.44 1912.69 872.88 1905.87   A 2.59 2.56 20.7 0 1 874.68 1905.07   Q 879.85 1904.94 898.34 1904.78   Q 900.24 1904.76 903.10 1904.19   C 906.75 1903.46 910.56 1901.29 913.58 1900.71   C 918.81 1899.68 925.58 1899.94 931.30 1899.92   Q 980.25 1899.77 1029.20 1899.89   C 1039.99 1899.92 1052.49 1896.19 1060.55 1896.07   C 1073.43 1895.88 1085.11 1895.56 1097.60 1895.65   C 1108.94 1895.74 1115.48 1895.46 1125.83 1892.80   Q 1129.34 1891.90 1140.34 1891.62   Q 1151.46 1891.33 1171.04 1891.02   C 1177.97 1890.91 1185.53 1888.86 1191.85 1887.60   Q 1196.10 1886.76 1205.00 1886.75   Z"
     id="path15"
     style="fill:#8b8b8b" />
  <path
     fill="#c19b47"
     d="   M 1205.00 1910.23   L 1205.00 1925.96   L 1205.00 1910.23   Z"
     id="path16"
     style="fill:#9d9d9d" />
  <path
     fill="#c19b47"
     d="   M 1205.00 1972.03   L 1205.00 1991.89   L 1205.00 1972.03   Z"
     id="path17"
     style="fill:#9d9d9d" />
</svg>
